<svg xmlns="http://www.w3.org/2000/svg" viewBox="0 0 1920 808.54"><defs><style>.cls-1{fill:#202040;}.cls-2{fill:#3f3d56;}.cls-3{fill:#6c63ff;}.cls-4{fill:#ff6584;}.cls-5{fill:#f2f2f2;}</style></defs><title>homeback</title><g id="Layer_2" data-name="Layer 2"><g id="Layer_5" data-name="Layer 5"><path class="cls-1" d="M0,0H1920V485.81C1920,861.66,0,805.58,0,805.58Z"/><circle class="cls-2" cx="989.94" cy="138.57" r="10.78" transform="translate(380.64 931) rotate(-60.41)"/><circle class="cls-2" cx="102.11" cy="333.3" r="10.78" transform="translate(-245.54 358.87) rotate(-77.17)"/><circle class="cls-3" cx="155.31" cy="78.93" r="8.98" transform="translate(42.69 211.84) rotate(-76.67)"/><circle class="cls-2" cx="516" cy="661.59" r="8.98"/><circle class="cls-2" cx="650.19" cy="69.94" r="8.98" transform="translate(477.29 700.61) rotate(-80.81)"/><circle class="cls-3" cx="403.7" cy="276.84" r="8.98"/><circle class="cls-2" cx="373.15" cy="582.21" r="8.98" transform="translate(-193.58 185.94) rotate(-22.38)"/><circle class="cls-2" cx="164.29" cy="679.96" r="8.98"/><path class="cls-4" d="M594.74,228.21a6.16,6.16,0,1,1-6.16,6.16A6.16,6.16,0,0,1,594.74,228.21Z"/><path class="cls-4" d="M795,641a6.16,6.16,0,1,1-6.16,6.16A6.16,6.16,0,0,1,795,641Z"/><path class="cls-5" d="M815.52,228.21a6.16,6.16,0,1,1-6.16,6.16A6.16,6.16,0,0,1,815.52,228.21Z"/><path class="cls-5" d="M837.05,556.25a6.16,6.16,0,1,1-6.16,6.16A6.16,6.16,0,0,1,837.05,556.25Z"/><path class="cls-5" d="M656.35,394.56a6.17,6.17,0,1,1-6.16,6.17A6.16,6.16,0,0,1,656.35,394.56Z"/><path class="cls-5" d="M330.82,353.49a6.16,6.16,0,1,1-6.16,6.16A6.16,6.16,0,0,1,330.82,353.49Z"/><path class="cls-3" d="M908.33,473.83a7.28,7.28,0,1,1-7.28,7.27A7.28,7.28,0,0,1,908.33,473.83Z"/><path class="cls-5" d="M531.15,531.14A6.16,6.16,0,1,1,525,537.3,6.16,6.16,0,0,1,531.15,531.14Z"/><path class="cls-5" d="M318.5,735.26a6.16,6.16,0,1,1-6.16,6.16A6.16,6.16,0,0,1,318.5,735.26Z"/><path class="cls-5" d="M641.21,722.94A6.16,6.16,0,1,1,635,729.1,6.16,6.16,0,0,1,641.21,722.94Z"/><path class="cls-4" d="M155.31,500.49a6.16,6.16,0,1,1-6.16,6.16A6.16,6.16,0,0,1,155.31,500.49Z"/><path class="cls-3" d="M253.74,597.36a7.28,7.28,0,1,1-7.28,7.28A7.28,7.28,0,0,1,253.74,597.36Z"/><path class="cls-5" d="M343.15,132.41a6.16,6.16,0,1,1-6.17,6.16A6.16,6.16,0,0,1,343.15,132.41Z"/></g></g></svg>