<?xml version="1.0" encoding="utf-8"?>
<!-- Generator: Adobe Illustrator 24.0.1, SVG Export Plug-In . SVG Version: 6.00 Build 0)  -->
<svg version="1.1" xmlns="http://www.w3.org/2000/svg" xmlns:xlink="http://www.w3.org/1999/xlink" x="0px" y="0px"
	 viewBox="0 0 1920 624" style="enable-background:new 0 0 1920 624;" xml:space="preserve">
<style type="text/css">
	.st0{fill:#202040;}
	.st1{opacity:0.34;}
	.st2{fill:none;}
	.st3{fill:#3F3D56;}
	.st4{fill:#6C63FF;}
	.st5{fill:#FF6584;}
	.st6{fill:#F2F2F2;}
</style>
<g id="Layer_2">
	<g id="Layer_3">
		<rect class="st0" width="1920" height="624"/>
	</g>
</g>
<g id="Layer_1" class="st1">
	<g id="Layer_5">
		<polygon class="st2" points="0,0 0,585 1920,587 1920,0 		"/>
		
			<ellipse transform="matrix(0.4938 -0.8696 0.8696 0.4938 380.6113 931.0073)" class="st3" cx="990" cy="138.6" rx="10.8" ry="10.8"/>
		<circle class="st3" cx="102.1" cy="333.3" r="10.8"/>
		<circle class="st4" cx="155.3" cy="78.9" r="9"/>
		<circle class="st3" cx="489" cy="552.6" r="9"/>
		<ellipse transform="matrix(0.1597 -0.9872 0.9872 0.1597 477.2968 700.5943)" class="st3" cx="650.2" cy="69.9" rx="9" ry="9"/>
		<circle class="st4" cx="403.7" cy="276.8" r="9"/>
		<circle class="st3" cx="349.2" cy="390.2" r="9"/>
		
			<ellipse transform="matrix(2.172371e-02 -0.9998 0.9998 2.172371e-02 -460.9215 574.8745)" class="st3" cx="63.3" cy="523" rx="9" ry="9"/>
		<path class="st5" d="M594.7,228.2c3.4,0,6.2,2.8,6.2,6.2s-2.8,6.2-6.2,6.2c-3.4,0-6.2-2.8-6.2-6.2c0,0,0,0,0,0
			C588.6,231,591.3,228.2,594.7,228.2z"/>
		<path class="st5" d="M681,491c3.4,0,6.2,2.8,6.2,6.2s-2.8,6.2-6.2,6.2c-3.4,0-6.2-2.8-6.2-6.2v0C674.8,493.8,677.6,491,681,491z"
			/>
		<path class="st6" d="M815.5,228.2c3.4,0,6.2,2.8,6.2,6.2s-2.8,6.2-6.2,6.2c-3.4,0-6.2-2.8-6.2-6.2c0,0,0,0,0,0
			C809.4,231,812.1,228.2,815.5,228.2z"/>
		<path class="st6" d="M809,394.3c3.4,0,6.2,2.8,6.2,6.2s-2.8,6.2-6.2,6.2c-3.4,0-6.2-2.8-6.2-6.2v0
			C802.9,397,805.6,394.3,809,394.3z"/>
		<path class="st6" d="M641.3,345.6c3.4,0,6.2,2.8,6.2,6.2c0,3.4-2.8,6.2-6.2,6.2c-3.4,0-6.2-2.8-6.2-6.2c0,0,0,0,0,0
			C635.2,348.3,637.9,345.6,641.3,345.6C641.3,345.6,641.3,345.6,641.3,345.6z"/>
		<path class="st6" d="M220.8,222.5c3.4,0,6.2,2.8,6.2,6.2c0,3.4-2.8,6.2-6.2,6.2c-3.4,0-6.2-2.8-6.2-6.2S217.4,222.5,220.8,222.5
			L220.8,222.5z"/>
		<path class="st4" d="M908.3,473.8c4,0,7.3,3.3,7.3,7.3s-3.3,7.3-7.3,7.3s-7.3-3.3-7.3-7.3c0,0,0,0,0,0
			C901.1,477.1,904.3,473.8,908.3,473.8z"/>
		<path class="st6" d="M504.1,422.1c3.4,0,6.2,2.7,6.2,6.1c0,3.4-2.7,6.2-6.1,6.2s-6.2-2.7-6.2-6.1c0,0,0,0,0,0
			C498,424.9,500.8,422.1,504.1,422.1z"/>
		<path class="st5" d="M214.3,434.5c3.4,0,6.2,2.8,6.2,6.2c0,3.4-2.8,6.2-6.2,6.2c-3.4,0-6.2-2.8-6.2-6.2S210.9,434.5,214.3,434.5
			L214.3,434.5z"/>
		<path class="st4" d="M287.7,532.4c4,0,7.3,3.3,7.3,7.3c0,4-3.3,7.3-7.3,7.3s-7.3-3.3-7.3-7.3S283.7,532.4,287.7,532.4L287.7,532.4
			z"/>
		<path class="st6" d="M343.1,132.4c3.4,0,6.2,2.8,6.1,6.2c0,3.4-2.8,6.2-6.2,6.1c-3.4,0-6.1-2.8-6.1-6.2
			C337,135.2,339.7,132.4,343.1,132.4C343.1,132.4,343.1,132.4,343.1,132.4z"/>
		<line class="st2" x1="1920" y1="389" x2="1920" y2="587"/>
		<polygon class="st2" points="1920,624 0,624 0,0 1920,0 1920,587 		"/>
	</g>
</g>
</svg>
