<svg xmlns="http://www.w3.org/2000/svg" viewBox="0 0 861.83 661.36"><defs><style>.cls-1,.cls-3{fill:#f2f2f2;}.cls-2{opacity:0.2;}.cls-2,.cls-8{isolation:isolate;}.cls-3,.cls-8{opacity:0.1;}.cls-4{fill:#6c63ff;}.cls-5{fill:#ffb9b9;}.cls-10,.cls-6,.cls-9{fill:#2f2e41;}.cls-7{fill:#575a89;}.cls-9{opacity:0.08;}.cls-10{opacity:0.07;}.cls-11{fill:#3f3d56;}.cls-12{fill:#fff;}</style></defs><title>illustration</title><g id="Layer_2" data-name="Layer 2"><g id="Layer_4" data-name="Layer 4"><circle class="cls-1" cx="494.73" cy="71.88" r="71.88"/><path class="cls-2" d="M488.48,27.71a7.1,7.1,0,1,1-7.1,7.09A7.09,7.09,0,0,1,488.48,27.71Z"/><path class="cls-2" d="M471.2,84.41a7.1,7.1,0,1,1-7.09,7.09A7.09,7.09,0,0,1,471.2,84.41Z"/><path class="cls-2" d="M534.8,74.56a10.25,10.25,0,1,1-10.25,10.25A10.25,10.25,0,0,1,534.8,74.56Z"/><polygon class="cls-3" points="195.54 96.14 199.22 399.73 358.24 477.19 354.56 173.59 195.54 96.14"/><polygon class="cls-3" points="861.83 414.56 540.91 258.24 544.6 561.84 743.01 658.49 861.83 414.56"/><polygon class="cls-3" points="368.93 173.59 372.61 477.19 531.63 554.65 527.95 251.05 368.93 173.59"/><rect class="cls-4" x="708.37" y="186.9" width="19.98" height="25.69" transform="translate(-7.2 27.99) rotate(-2.22)"/><path class="cls-5" d="M637.77,276.44s-27.65-13.21-27.21-1.8,27.88,18.92,27.88,18.92Z"/><path class="cls-6" d="M652.94,373s-13,31.93-17.86,55-12.16,54.75-2.72,77.24,36.29,88.59,36.57,95.72-2.3,14.37,3.4,14.15,36.75-10,38-14.33-10.59-15.3-10.59-15.3l-29.27-91.71L701,434l22,89.14,4.31,111.26s21.17-6.54,24.25-1c0,0,9.48-13.22,10.69-19s-4.48-115.53-4.48-115.53,19.43-125,3.75-124.42S684.42,337.48,652.94,373Z"/><path class="cls-6" d="M672.11,609.37s-14.47,32-15.84,33.47S645.46,659,652.6,658.69s24-8.07,36.36-20,28.74-32.54,27.25-33.91-11.63-5.26-11.63-5.26Z"/><path class="cls-6" d="M729.94,627.12s-.88,14.32-3.51,20.14-2.3,14.37,4.83,14.09,25.57-3.84,25.57-3.84,1.09-8.62-.39-10-7.8-16.84-5.11-21.23S729.94,627.12,729.94,627.12Z"/><path class="cls-5" d="M740.49,162.47s15.2,23.69,21.13,29.17-10.75,17.56-10.75,17.56l-29.84,4s.37-27.16-1.16-30S740.49,162.47,740.49,162.47Z"/><path class="cls-4" d="M714.55,193.47s6.15,11.19,11.85,11,35.22-12.8,36.48-17.13,9.77,31.05,9.77,31.05L700.44,345.43l-17.61-12.17,8.53-74.61,7-40.27Z"/><path class="cls-7" d="M765.54,307.2c-2.88,6-4.68,12.3-4.43,18.74,0,.28,0,.57,0,.85.68,13.21,5.54,28.47,7.29,39.57,1.27,8,.91,13.78-3.76,15.15-11.3,3.29,1.65,5.65-42.07,20.2s-51.34,2-51.45-.86,6.19-24.52,4.71-25.9-20.74,17.95-26.55,15.32-.67-17.12-.67-17.12,13.11-30.5,12.83-37.64,19.85-40.76,19.85-40.76L695,205.65s5.27-11.63,12.34-13.33a17.56,17.56,0,0,1,12.95,2.35l-11.84,26.18L696,267l2.09,17.06s14.52-30.56,24.06-42.36S752,202,752,202s4.75-16,1.16-20.82,15-5.52,22.87,14.17c4.19,10.44,11,26,15.25,40.49,3.8,12.84,5.59,24.84,1.83,31.7C787.38,278,772.92,291.81,765.54,307.2Z"/><path class="cls-8" d="M793.13,267.56c-5.75,10.48-20.21,24.25-27.59,39.64-1.93-6.94-4.27-14.12-4.27-14.12s-9-48.22,17.64-60.68a17.85,17.85,0,0,1,12.39,3.46C795.1,248.7,796.89,260.7,793.13,267.56Z"/><path class="cls-7" d="M687.31,264.52l-22.6,6.59-31.38,1.22-3.23,27.26,51.57,3.72S694.55,267.1,687.31,264.52Z"/><path class="cls-5" d="M724.16,356.2s-30.24,5-23.34,14.11,33.69-.47,33.69-.47Z"/><path class="cls-8" d="M761.16,326.79c.68,13.21,5.54,28.47,7.29,39.57-9.63,9.12-18.79,17.16-22.24,17.29-7.13.28-18.6-.7-22.82.89s-6.7-25.45-6.7-25.45,2.52-8.67,13.76-13.39C738,342.5,752.59,333.84,761.16,326.79Z"/><path class="cls-7" d="M778.58,223.84s24.13-3.79,22.83,36.25,2.54,65.62-7.16,73.13S753,374.82,745.87,375.1s-18.59-.71-22.82.88-6.7-25.45-6.7-25.45,2.52-8.67,13.77-13.39,37.74-21.46,37.51-27.17-6.7-25.45-6.7-25.45S751.92,236.3,778.58,223.84Z"/><circle class="cls-5" cx="719.2" cy="166.15" r="31.4" transform="translate(502.49 871.76) rotate(-85.93)"/><path class="cls-6" d="M698.06,121.14a6,6,0,0,1-2.64,1.32,1.87,1.87,0,0,1-2.18-1.51c-.72,1.49-1.53,3.08-3,3.84s-3.74.13-4-1.51a6.86,6.86,0,0,1-1.59,3.36c-.91.87-2.56,1.09-3.36.11.65,3.51.25,7.12.45,10.69s1.15,7.34,3.85,9.68c3.92,3.42,9.83,2.57,15,1.93a4.47,4.47,0,0,1,2.35.13c1.93.82,1.85,3.51,1.87,5.61a15.63,15.63,0,0,0,13.67,14.83,7.86,7.86,0,0,0,5.81-1.42c1.47-1.25,2.22-3.27,3.9-4.21,2.73-1.52,6,.7,8,3.1s4,5.37,7.06,5.81c4.09.58,7.21-3.59,8.74-7.43a43.33,43.33,0,0,0-.86-33.67C742.67,113.17,713.47,110.22,698.06,121.14Z"/><rect class="cls-9" x="6.34" y="655.38" width="336.91" height="1.8"/><rect class="cls-10" x="503.18" y="658.97" width="336.91" height="1.8"/><path class="cls-6" d="M83.51,656.69l-1.6-.82"/><rect class="cls-11" x="181.18" y="113.92" width="433.05" height="259.65"/><circle class="cls-4" cx="198.25" cy="123.8" r="4.49"/><path class="cls-4" d="M214.42,119.31a4.49,4.49,0,1,1-4.49,4.49A4.49,4.49,0,0,1,214.42,119.31Z"/><circle class="cls-4" cx="230.59" cy="123.8" r="4.49"/><rect class="cls-6" x="181.54" y="133.85" width="432.69" height="1.8"/><polygon class="cls-4" points="433.64 186.69 433.64 267.55 316.1 267.55 294.38 293.61 296.86 267.55 286.3 267.55 286.3 186.69 433.64 186.69"/><rect class="cls-8" x="380.63" y="214.54" width="53.01" height="53.01"/><polygon class="cls-4" points="392.31 226.22 539.65 226.22 539.65 307.08 529.09 307.08 531.57 333.14 509.86 307.08 392.31 307.08 392.31 226.22"/><path class="cls-8" d="M295.28,300.33c17.86,0,32.34,1.42,32.34,3.16s-14.48,3.15-32.34,3.15-32.35-1.41-32.35-3.15S277.42,300.33,295.28,300.33Z"/><path class="cls-8" d="M531.57,342.12c20.34,0,36.83,1.61,36.83,3.59s-16.49,3.6-36.83,3.6-36.84-1.61-36.84-3.6S511.22,342.12,531.57,342.12Z"/><circle class="cls-4" cx="167.43" cy="514.44" r="136.71" transform="translate(-370.69 570.18) rotate(-77.89)"/><path class="cls-2" d="M161.4,438.71a20.11,20.11,0,1,1-20.1,20.11A20.1,20.1,0,0,1,161.4,438.71Z"/><path class="cls-2" d="M161.4,558.67a34.85,34.85,0,1,1-34.85,34.84A34.84,34.84,0,0,1,161.4,558.67Z"/><path class="cls-2" d="M60.21,531.86a8.71,8.71,0,1,1-8.71,8.71A8.71,8.71,0,0,1,60.21,531.86Z"/><path class="cls-2" d="M207.58,424a4.63,4.63,0,1,1-4.63,4.63A4.63,4.63,0,0,1,207.58,424Z"/><path class="cls-2" d="M155.37,514.44a6,6,0,1,1-6,6A6,6,0,0,1,155.37,514.44Z"/><path class="cls-2" d="M268,483.07a4.64,4.64,0,1,1-4.63,4.63A4.63,4.63,0,0,1,268,483.07Z"/><path class="cls-2" d="M229.77,528.25a6.69,6.69,0,1,1-6.69,6.69A6.68,6.68,0,0,1,229.77,528.25Z"/><path class="cls-2" d="M83,450.1a8.72,8.72,0,1,1-8.71,8.72A8.71,8.71,0,0,1,83,450.1Z"/><path class="cls-12" d="M197.05,593.24a381.66,381.66,0,0,1-43-2.49c-43-4.88-82.58-16.41-111.57-32.46C13.12,542-1.89,523,.19,504.71c1.44-12.68,13.7-24,37.47-34.69a1.34,1.34,0,0,1,1.09,2.45C15.92,482.71,4.18,493.35,2.86,505c-1.95,17.16,12.57,35.24,40.9,50.93,28.68,15.89,67.95,27.31,110.57,32.15s83.44,2.52,115-6.53c31.12-8.94,49.34-23.31,51.28-40.46,1.32-11.61-5.07-23.91-18.48-35.59a1.34,1.34,0,1,1,1.76-2h0c14.11,12.28,20.81,25.39,19.39,37.91-2.08,18.3-21,33.48-53.21,42.73C249,590.16,224,593.24,197.05,593.24Z"/></g></g></svg>